<svg xmlns="http://www.w3.org/2000/svg" width="14" height="11" viewBox="0 0 14 11"><g><g><path fill="#fff" d="M14.19 5.236c-.5.085-1.228-.004-1.613-.164.8-.066 1.343-.43 1.551-.924-.288.178-1.184.371-1.678.187a5.939 5.939 0 0 0-.079-.327c-.376-1.385-1.667-2.501-3.018-2.366.109-.044.22-.086.33-.123.149-.053 1.022-.196.885-.504-.116-.271-1.183.204-1.384.267.265-.1.704-.27.75-.576a2.115 2.115 0 0 0-1.113.528.764.764 0 0 0 .214-.423c-1.084.693-1.717 2.09-2.229 3.445-.402-.39-.76-.698-1.079-.87-.897-.48-1.97-.983-3.654-1.609-.052.558.276 1.3 1.218 1.793-.204-.028-.578.034-.876.105.122.64.519 1.166 1.595 1.42-.492.032-.746.145-.976.386.224.444.77.967 1.753.86-1.093.471-.446 1.345.444 1.214-1.517 1.57-3.909 1.453-5.283.142 3.586 4.891 11.382 2.892 12.543-1.819.871.007 1.382-.301 1.7-.642z"/></g></g></svg>