<svg xmlns="http://www.w3.org/2000/svg" width="38" height="26" viewBox="0 0 38 26"><g><g><path fill="#b3b6c3" d="M37.504 12.305c-1.31.223-3.208-.009-4.213-.428 2.09-.173 3.505-1.123 4.05-2.412-.753.464-3.093.969-4.383.487a15.646 15.646 0 0 0-.205-.853c-.983-3.617-4.353-6.531-7.883-6.18.285-.115.574-.222.865-.32.387-.14 2.667-.511 2.31-1.315-.305-.71-3.091.533-3.615.697.692-.26 1.837-.708 1.96-1.505-1.061.146-2.102.647-2.907 1.378.291-.313.511-.695.558-1.105-2.83 1.81-4.484 5.457-5.82 8.997-1.05-1.02-1.984-1.822-2.818-2.27-2.343-1.255-5.145-2.567-9.541-4.202-.136 1.456.719 3.394 3.179 4.68-.533-.072-1.507.09-2.286.275.317 1.67 1.354 3.044 4.164 3.708-1.284.085-1.948.379-2.549 1.007.585 1.162 2.013 2.527 4.578 2.246-2.854 1.232-1.164 3.514 1.16 3.172-3.961 4.098-10.208 3.794-13.795.37 9.364 12.773 29.721 7.553 32.753-4.75 2.275.018 3.61-.787 4.438-1.677z"/></g></g></svg>